<svg xmlns="http://www.w3.org/2000/svg" xmlns:xlink="http://www.w3.org/1999/xlink" width="340" height="236" viewBox="0 0 340 236">
    <defs>
        <path id="a" d="M0 1.025h197.507v164.414H0z"/>
        <path id="c" d="M.958 1.001h21.315v36.824H.958z"/>
        <path id="e" d="M0 1.126h175.174v174.28H0z"/>
    </defs>
    <g fill="none" fill-rule="evenodd">
        <g transform="translate(0 -.463)">
            <mask id="b" fill="#fff">
                <use xlink:href="#a"/>
            </mask>
            <path fill="#FFE9EC" d="M192.268 116.675c.237 4.322-.316 8.91-2.434 13.11-.04.082-.081.163-.125.243-.02.045-.045.087-.07.134a21.1 21.1 0 0 1-3.116 4.41c-1.317 1.436-2.951 2.732-4.816 3.9-.236.15-.474.293-.719.435-.534.318-1.09.627-1.66.924-11.355 5.937-28.904 8.098-38.728 8.876a95.42 95.42 0 0 0-7.29.412H133.296a96.647 96.647 0 0 0-12.558 2.024c-14.202 3.257-27.54 9.678-41.787 12.739-12.747 2.739-27.144 2.291-37.802-4.803-2.24-1.49-4.028-3.57-5.237-5.974-1.375-2.736-2.526-5.172-3.713-7.473-.186-.36-.37-.713-.558-1.066-.03-.053-.056-.108-.086-.16-1.467-2.745-3.06-5.34-5.239-8.09-.326-.414-.667-.83-1.025-1.25l-.001-.003a53.895 53.895 0 0 0-.723-.843 61.591 61.591 0 0 0-1.744-1.898c-2.132-2.229-4.43-4.297-6.64-6.45l-.587-.578c-.155-.152-.308-.308-.463-.462-.598-.6-1.184-1.21-1.757-1.834C2.812 111.468-1.99 94.911.766 79.52 3.52 64.134 13.774 50.27 27.688 43.116c2.555-1.314 5.196-2.4 7.899-3.325.358-.123.712-.241 1.073-.359 8.952-2.901 18.53-4.103 27.848-5.81a240.142 240.142 0 0 0 54.965-17.076c2.923-1.31 5.827-2.68 8.738-4.046l1.072-.5c9.358-4.374 18.79-8.583 28.923-10.313 4.355-.741 8.86-1.006 13.165-.02 11.452 2.635 19.516 14.421 19.519 26.164.006 13.417-8.785 25.72-8.527 39.133.092 4.77 1.326 9.366 3.188 13.767 1.75 4.141 4.053 8.108 6.48 11.885.155.24.312.48.47.72 1.641 2.535 3.351 5.043 5.006 7.576l-5.561 12.51c.153 1.062.262 2.148.322 3.253" mask="url(#b)"/>
        </g>
        <path fill="#FF8383" d="M189.835 129.323c-.04.081-.083.163-.125.24L66.866 142.108l-.097.011-42.028-8.16-.175-.2a57.939 57.939 0 0 0-1.742-1.899c-2.132-2.23-4.43-4.296-6.64-6.452-.196-.19-.392-.382-.588-.576l110.626-5.295 51.37-2.457 12.86-.76 1.816-.106c.238 4.32-.317 8.909-2.433 13.11"/>
        <path fill="#FFF" d="M189.64 129.698a21.041 21.041 0 0 1-3.116 4.41c-1.32 1.437-2.953 2.732-4.817 3.9-.236.15-.475.295-.718.437l-97.34 11.174-15.312 1.76-.265-4.865-.199-3.617.024-.001 8.057-.874 113.685-12.324z"/>
        <path fill="#C63838" d="M29.53 124.629L19.97 96.53c-1.995-5.864.088-12.372 5.172-15.912 5.912-4.114 16.692-8.252 36.358-9.711 43.756-3.246-2.323 51.636-2.323 51.636l-29.647 2.085z"/>
        <path fill="#E45263" d="M86.767 57.105l3.108-2.272 3.974-1.875 12.215 4.147 5.216 55.173-13.48 3.386-9.294-27.973z"/>
        <path fill="#872217" d="M122.833 127.514l-40.523-.972a2.13 2.13 0 0 1 1.903-2.118l41.852-4.516-3.232 7.606z"/>
        <path fill="#FDCB22" d="M138.736 89.692c-.07-.503-.358-.944-.638-1.367a300.696 300.696 0 0 0-12.45-17.376c-2.642-3.423-5.412-6.83-8.926-9.35-3.638-2.61-10.62-5.13-14.896-6.161 4.28 5.686 3.485 7.289 3.879 10.003 2.293 15.827.88 31.274 1.126 47.228.037 2.422.142 5.044 1.665 6.931.289.36.644.693 1.084.832.35.111.725.09 1.089.067 5.18-.313 10.36-.625 15.537-.94l-5.047-29.811c4.04 5.007 8.08 10.015 12.119 15.024l5.125-13.415c.204-.534.412-1.099.333-1.665"/>
        <path fill="#FCB912" d="M119.97 88.545l.404 31.363 5.849-.371-4.98-28.991z"/>
        <path fill="#EDB78E" d="M124.134 117.476c.008.346-.258.637-.545.827-.528.345-1.162.476-1.786.564a15.056 15.056 0 0 1-8.342-1.276l3.147 4.238c.14.187.286.412.225.637-.048.18-.217.3-.375.398a7.099 7.099 0 0 1-4.574.954c-2.822-.378-5.21-2.434-8.036-2.809-1.428-.192-2.874.063-4.316.144-1.442.081-2.976-.036-4.155-.866-.284-.198-.55-.443-.68-.765-.33-.808.297-1.66.803-2.372.158-.223.305-.45.444-.682a11.154 11.154 0 0 0 1.463-3.937c1.556-.093 3.53-.616 5.033-1.022 2.19-.585 4.544-1.487 6.627-.596.484.21.926.506 1.366.8 3.638 2.443 7.61 4.89 11.994 4.887.715 0 1.693.161 1.707.876"/>
        <path fill="#E2A881" d="M115.791 123.217a7.114 7.114 0 0 1-3.906.601c-2.824-.377-5.211-2.434-8.037-2.809-1.43-.192-2.874.062-4.316.145-1.442.08-2.976-.037-4.155-.868-.284-.198-.55-.443-.68-.764-.329-.809.297-1.661.804-2.373.156-.221.304-.45.443-.682 1.03.738 3.18 1.644 7.282 1.136 6.497-.8 5.157 2.946 9.779 4.283 1.487.432 2.327.9 2.786 1.331"/>
        <path fill="#891515" d="M189.835 129.323c-.04.081-.083.163-.125.24-.022.047-.046.09-.07.135-.135.257-.277.513-.426.765l-113.26 11.56-8.059.821.002.051.175 3.62.236 4.922 15.342-1.818 98.057-11.612a34.257 34.257 0 0 1-2.38 1.361l-111.465 13.2a.528.528 0 0 1-.408-.125.526.526 0 0 1-.19-.383l-.464-9.67a.543.543 0 0 1 .066-.283.53.53 0 0 1 .415-.276l122.554-12.508z"/>
        <path fill="#891515" d="M67.862 142.468a.537.537 0 0 1-.524.429.785.785 0 0 1-.105-.006l-.356-.07-41.071-8.118v-.002l-.514-.098-.003-.003c-.233-.28-.475-.559-.723-.843a.53.53 0 0 1 .576-.276l42.297 8.358c.292.059.48.338.423.629M68.326 152.146a.537.537 0 0 1-.634.415l-35.493-7.393c-.186-.359-.37-.713-.557-1.064-.03-.053-.057-.11-.086-.163l35.658 7.426.697.146c.289.06.473.344.415.633"/>
        <path fill="#FFF" d="M163.063 56.855a2.863 2.863 0 0 1-2.865 2.863 2.863 2.863 0 1 1 0-5.725 2.863 2.863 0 0 1 2.865 2.862"/>
        <path fill="#FFF" d="M160.198 50.994c-3.233 0-5.865 2.63-5.865 5.86a5.87 5.87 0 0 0 5.865 5.861 5.87 5.87 0 0 0 5.866-5.86c0-3.231-2.632-5.861-5.866-5.861m0 11.99c-3.381 0-6.134-2.75-6.134-6.13 0-3.378 2.753-6.127 6.134-6.127 3.382 0 6.135 2.749 6.135 6.128s-2.753 6.129-6.135 6.129"/>
        <path fill="#DC4541" d="M202.746 88.673l-5.24 11.776-5.56 12.51-1.495 3.36-4.225 9.5-63.391 1.695 3.388-7.977 14.717-34.633a5.448 5.448 0 0 1 4.63-3.3c7.323-.509 25.318-1.617 39.98-1.336 4.851.09 9.337.337 12.949.806a5.327 5.327 0 0 1 3.174 1.59 5.426 5.426 0 0 1 1.073 6.009"/>
        <path fill="#FFF" d="M173.479 102.214c-.831 2.978-3.924 5.68-6.91 6.04-2.983.357-4.727-1.765-3.898-4.743a7.819 7.819 0 0 1 2.378-3.743c.632-.556 1.341-1.094 2.146-1.374.632-.221 2.018-.312 1.959.66-.008.17-.013.342.037.505.26.843 1.29.442 1.754.026.402-.357.744-.863 1.31-.947.533-.078.947.264 1.165.726.039.096.076.198.106.3.22.728.218 1.594-.047 2.55"/>
        <path fill="#CC9E1F" d="M121.954 90.675c-1.26-2.491-2.927-4.767-3.93-7.386-.183-.477-.959-.27-.775.214 1.028 2.688 2.718 5.023 4.012 7.578.232.46.926.054.693-.406"/>
        <path fill="#FDCB22" d="M97.8 112.125a317.773 317.773 0 0 0-2.065-21.85c-.762-5.88-2.282-11.277-3.716-17.04-.715-2.874-1.593-5.628-2.732-8.364-1.082-2.594-1.846-5.979.041-9.637a40.36 40.36 0 0 1-9.058 4.924c-2.653 1.035-5.407 1.801-8.034 2.898-1.526.637-3.024 1.396-4.27 2.482-1.411 1.228-2.444 2.823-3.41 4.421-1.094 1.81-2.131 3.654-3.021 5.57-1.428 3.074-2.469 6.31-3.657 9.485-2.121 5.67-4.722 11.153-7.567 16.499-1.796 3.373-3.725 6.797-4.228 10.583-.506 3.788.784 8.1 4.108 9.988 1.517.863 3.293 1.14 5.033 1.27 12.718.952 24.774-.793 39.146-2.66.394-.05-.37.15 0 0 .42-.17.667-.603.867-1.01 1.162-2.37 2.395-4.926 2.563-7.56"/>
        <path fill="#EDB78E" d="M102.032 64.177c-1.767 1.272-4.413 1.552-6.351.983-2.478-.728-5.038-1.406-6.412-3.77-1.264-2.164-.244-4.869.359-7.3.773-3.11.803-6.4.09-9.521l7.405 1.428 2.513.484c-.017-.003.156 2.764.197 3.02.154 1.033.401 2.05.732 3.04.655 1.965 1.883 3.609 2.617 5.525.6 1.566.968 3.654-.108 5.098-.29.388-.644.725-1.042 1.013"/>
        <path fill="#E2A881" d="M102.465 56.538c-6.93-.509-9.572-5.325-10.445-7.638.573.459 1.206.84 1.887 1.12 1.902.784 4.205 1.138 6.07.292.351 2.062.982 3.618 2.021 5.433.153.266.311.528.467.793"/>
        <g transform="translate(190.57 35.434)">
            <mask id="d" fill="#fff">
                <use xlink:href="#c"/>
            </mask>
            <path fill="#FFE9EC" d="M20.104 7.789c-.618-1.836-1.392-3.7-2.82-5.01C14.574.286 10.077.564 7.064 2.684 4.05 4.802 2.328 8.34 1.425 11.91.6 17.594.808 21.62 2.523 27.599c.834 2.914 2.123 5.805 4.366 7.843 2.246 2.039 5.608 3.055 8.41 1.895 2.675-1.107 4.28-3.86 5.258-6.582 2.638-7.343 2.035-15.57-.453-22.966" mask="url(#d)"/>
        </g>
        <path fill="#CC9E1F" d="M117.999 83.663a63.578 63.578 0 0 0 1.609-2.399c.278-.437-.416-.84-.694-.404a63.523 63.523 0 0 1-1.609 2.397c-.298.423.399.826.694.406"/>
        <path fill="#FFF" d="M73.555 132.608H61.766l-2.457-15.96h16.967z"/>
        <path fill="#FFF" d="M73.555 132.608c0 1.09-2.646 1.977-5.909 1.977-3.265 0-5.91-.886-5.91-1.977 0-1.093 2.645-1.98 5.91-1.98 3.263 0 5.91.887 5.91 1.98M76.277 116.648c0 1.093-3.8 1.98-8.484 1.98-4.686 0-8.483-.887-8.483-1.98 0-1.09 3.797-1.977 8.483-1.977 4.685 0 8.484.886 8.484 1.977"/>
        <path fill="#EAEAEA" d="M74.85 116.648c0 .91-3.158 1.647-7.057 1.647-3.897 0-7.057-.737-7.057-1.647 0-.908 3.16-1.645 7.057-1.645 3.899 0 7.057.737 7.057 1.645"/>
        <path fill="#FFF" d="M60.421 118.342l-3.775.53c-1.086.152-2.657.09-3.409 1.037-1.618 2.043 1.645 4.28 2.86 5.553 2.092 2.191 4.142 4.459 6.79 5.99.896.518 1.706-.868.811-1.386-2.1-1.216-3.772-2.925-5.437-4.667-.912-.953-1.825-1.908-2.735-2.864-.564-.59-1.695-1.38-.48-1.829.937-.346 2.218-.312 3.206-.45a797.46 797.46 0 0 1 2.596-.365c1.021-.143.585-1.691-.427-1.55"/>
        <path fill="#000" d="M81.181 28.554c-2.13.337-4.036 1.846-4.85 3.842-.814 1.996-.508 4.408.782 6.136.924 1.239 2.267 2.094 3.318 3.227a8.931 8.931 0 0 1 2.185 4.244c.23 1.12.254 2.314.799 3.321.968 1.792 3.644 2.365 5.262 1.125 1.234-.944 1.706-2.569 1.973-4.1.67-3.86.494-7.864-.514-11.65-.515-1.94-1.3-3.9-2.804-5.228-1.502-1.33-3.884-1.835-5.548-.713l-.603-.204z"/>
        <path fill="#EDB78E" d="M110.571 34.981c-.082.798-.203 1.59-.342 2.374-.67 3.757-2.135 7.378-4.345 10.491-.69.966-1.414 1.92-2.323 2.685-2.262 1.909-7.477 2.35-10.213 1.22-2.454-1.011-4.287-3.198-5.354-5.63-1.07-2.43-1.448-5.101-1.658-7.748-2.177.078-4.123-2.148-3.758-4.291.367-2.144 1.889-3.379 4.938-2.463.1 0 .198 0 .298-.006 6.015-.09 11.031-3.596 16.781-4.754 1.01-.203 3.985-1.118 4.728-.283.316.353.497.993.653 1.432.366 1.003.561 2.058.655 3.118.112 1.283.072 2.574-.06 3.855"/>
        <path fill="#E2A881" d="M110.571 34.981c-1.052-.6-2.582-1.408-4.665-2.366-4.686-2.154-7.904 3.814-13.53 2.141-2.706-.805-3.976-2.058-4.562-3.143 6.015-.09 11.031-3.596 16.781-4.754 1.01-.203 3.985-1.118 4.728-.283.316.353.497.993.653 1.432.366 1.003.561 2.058.655 3.118.112 1.283.072 2.574-.06 3.855"/>
        <path fill="#FCB912" d="M77.364 91.884s-3.586 14.233 1.46 15.126l-5.682-1.05s-.369.425 0-1.182c.369-1.606 3.432-12.848 4.222-12.894"/>
        <path fill="#CC9E1F" d="M77.044 90.579a115.233 115.233 0 0 0-4.863 15.097.41.41 0 0 0 .28.493c6.767 2.121 13.885 2.42 20.802 3.82.938.19 3.86.444 4.07 1.49.149.73-.17 1.745-.32 2.456-.525 2.502-1.426 5.104-3.18 7.02-.35.378.218.948.568.566 1.817-1.982 2.793-4.636 3.356-7.228.301-1.395 1.013-3.421-.624-4.163-1.741-.788-3.963-.998-5.835-1.322-2.026-.348-4.063-.625-6.097-.91-4.224-.59-8.446-1.223-12.526-2.501.095.164.187.327.281.493a115.233 115.233 0 0 1 4.863-15.097c.19-.481-.586-.69-.775-.214"/>
        <path fill="#CC9E1F" d="M72.513 105.393c-2.222.334-4.345.97-6.4 1.885-.47.21-.062.903.407.693a23.802 23.802 0 0 1 6.207-1.802c.51-.078.292-.852-.214-.776M74.522 88.776c.466.368.802.858 1.244 1.25.42.375.907.654 1.395.929.453.252.857-.44.406-.693-.475-.269-.96-.536-1.356-.917-.384-.371-.698-.802-1.12-1.137-.401-.319-.973.246-.569.568"/>
        <path fill="#770C0C" d="M82.31 126.542l40.524.972v1.066l-39.19-1.313a1.683 1.683 0 0 1-1.262-.635l-.072-.09z"/>
        <path fill="#770C0C" d="M186.225 125.82c0 .605-.482 1.1-1.085 1.115l-62.306 1.645v-1.066l63.391-1.695z"/>
        <path fill="#DC4541" d="M176.22 19.515h-29.437a5.73 5.73 0 0 0-5.732 5.726v9.605c0 3.062 2.408 5.556 5.434 5.71.219.594.336 1.806-.817 3.88-.4.723.284 1.575 1.08 1.346 2.597-.746 6.591-2.329 7.835-5.21h21.637a5.73 5.73 0 0 0 5.733-5.726V25.24a5.73 5.73 0 0 0-5.733-5.726"/>
        <path fill="#FFF" d="M178.261 24.96H150.4a.401.401 0 1 1 0-.804h27.862a.403.403 0 1 1 0 .804M152.277 28.621h-1.878a.401.401 0 1 1 0-.803h1.878a.403.403 0 1 1 0 .803M172.167 28.621h-16.88a.402.402 0 0 1 0-.803h16.88a.402.402 0 0 1 0 .803M167.278 31.585h-16.88a.402.402 0 0 1 0-.803h16.88a.402.402 0 0 1 0 .803M155.758 34.107h-5.36a.402.402 0 0 1 0-.804h5.36a.402.402 0 0 1 0 .804M173.506 34.107h-14.535a.402.402 0 0 1 0-.804h14.535a.402.402 0 0 1 0 .804"/>
        <path fill="#000" d="M81.98 30.272c1.5-1.085 3.616-.515 5.246.364 1.629.878 3.22 2.057 5.07 2.11 3.244.095 5.628-3.236 8.822-3.8 1.948-.344 3.906.39 5.755 1.094 1.848.702 3.83 1.398 5.764.98 1.932-.42 3.65-2.435 3-4.3-.391-1.12-1.527-1.978-1.524-3.164.006-1.48 1.68-2.26 2.907-3.095 1.436-.977 2.562-2.725 2.106-4.4-.202-.738-.68-1.365-1.194-1.933-2.407-2.66-6.31-4.417-9.623-3.038-2.517 1.05-4.452 3.76-7.177 3.634-1.505-.07-2.805-1.026-4.228-1.52-2.296-.798-4.906-.344-7.02.853-2.113 1.198-3.772 3.075-5.076 5.124-.54.848-1.042 1.806-.924 2.804.128 1.083.974 2.14.57 3.154-.527 1.328-2.516 1.122-3.66 1.977-1.288.962-.86 3.375.68 3.835.901.27 1.856-.06 2.792-.165a5.84 5.84 0 0 1 3.478.697l-5.764-1.21z"/>
        <path fill="#241E3E" d="M106.976 23.38c.517 0 .519-.804 0-.804-.517 0-.517.804 0 .804"/>
        <path fill="#CC9E1F" d="M87.71 56.102a66.033 66.033 0 0 0-8.48 11.258c-.105.176-.049.452.145.548a85.108 85.108 0 0 0 8.49 3.656l-.282-.494c-.867 2.333-1.948 4.535-3.183 6.69-.533.928.095 1.658.489 2.604.406.974.821 1.946 1.243 2.915a178.172 178.172 0 0 0 6.748 13.755c.249.454.942.049.694-.405a178.157 178.157 0 0 1-6.336-12.82 189.576 189.576 0 0 1-1.574-3.659c-.164-.396-.513-.994-.583-1.417-.11-.679.405-1.231.712-1.792a42.656 42.656 0 0 0 2.565-5.657c.08-.216-.092-.425-.281-.494a83.943 83.943 0 0 1-8.296-3.574c.047.183.095.365.144.548a64.956 64.956 0 0 1 8.353-11.094c.353-.377-.212-.947-.568-.568M102.049 56.008c3.99 3.29 8.16 6.356 12.15 9.646v-.57c-1.666 2.067-3.33 4.13-4.998 6.196-.136.169-.167.402 0 .567l2.656 2.627c.56.552 1.35 1.07 1.42 1.93.039.455-.227 1.068-.327 1.527a231.937 231.937 0 0 1-1.723 7.346 241.588 241.588 0 0 1-4.06 14.265c-.156.494.62.706.775.214a241.56 241.56 0 0 0 5.447-20.087c.233-1.04.783-2.386.73-3.454-.046-.878-.717-1.346-1.314-1.935-1.012-1-2.023-2-3.037-3v.567c1.669-2.063 3.334-4.13 5-6.193.127-.156.182-.418 0-.57-3.99-3.288-8.16-6.354-12.152-9.644-.395-.326-.967.24-.567.568"/>
        <g>
            <g transform="translate(164 60.469)">
                <mask id="f" fill="#fff">
                    <use xlink:href="#e"/>
                </mask>
                <path fill="#FFE9EC" d="M7.652 130.317c8.885 11.035 24.08 15.828 36.521 21.583 15.336 7.094 30.564 14.385 46.645 19.487 12.599 3.996 26.474 4.384 39.682 3.803 37.846-1.664 51.161-53.246 41.785-83.234a50.574 50.574 0 0 0-1.744-4.744c-4.144-9.702-11.05-14.36-19.206-20.416-12.114-8.995-23.069-19.763-29.389-33.55-5.065-11.047-9.589-24.912-21.697-30.178-4.743-2.063-10.12-2.285-15.245-1.582-14.4 1.978-28.171 11.31-33.728 24.918-5.778 14.144-2.837 29.943-1.76 44.661.136 1.858.257 3.8-.491 5.505-.78 1.778-2.396 3.037-4.01 4.118-12.365 8.267-32.06 5.336-41.437 18.22-5.25 7.213-4.267 17.503 0 25.332a40.9 40.9 0 0 0 4.074 6.077" mask="url(#f)"/>
            </g>
            <path fill="#000" d="M271.23 123.785c2.389-.444 4.458-2.054 5.811-4.066 1.355-2.013 2.055-4.398 2.42-6.795 1.006-6.637-.522-13.624-4.209-19.242-.856-1.304-1.88-2.585-3.305-3.227-2.608-1.182-5.778.178-7.674 2.318-2.285 2.58-3.225 6.14-3.177 9.58.048 3.44 1.004 6.805 2.13 10.056 1.67 4.822 4.188 9.97 8.964 11.805l-.96-.43z"/>
            <path fill="#DC4541" d="M184.319 151.556h28.586c3.073 0 5.566 2.485 5.566 5.548v9.303c0 2.966-2.338 5.382-5.277 5.531-.213.575-.325 1.75.792 3.757.39.702-.273 1.526-1.048 1.305-2.52-.723-6.398-2.257-7.606-5.046h-21.013c-3.074 0-5.566-2.484-5.566-5.547v-9.303c0-3.063 2.492-5.548 5.566-5.548"/>
            <path fill="#3C60AB" d="M274.197 133.756c.432.268.866.53 1.3.792a24 24 0 0 1 .926.351l-2.226-1.143z"/>
            <path fill="#000" d="M243.45 110.851c2.67 3.974 5.7 10.722 2.917 14.618-1.552 2.173-3.784 3.755-5.955 5.316-2.173 1.563-4.378 3.194-5.84 5.43-1.464 2.236-2.058 5.229-.811 7.592.813 1.539 2.305 2.634 3.909 3.321 4.67 1.995 10.121.8 14.734-1.325 3.275-1.51 6.547-3.72 7.747-7.112.669-1.888.621-3.967.226-5.93-.989-4.937-4.053-9.252-7.706-12.73-1.518-1.446-3.205-2.856-3.96-4.807l-5.26-4.373zM268.052 130.163c.125 3.582.51 7.238 2.038 10.485 2.69 5.716 8.482 9.315 14.288 11.846 3.029 1.317 6.253 2.457 9.557 2.278 3.3-.18 6.7-1.953 7.933-5.015.982-2.447.42-5.32-.962-7.569-1.377-2.253-3.486-3.969-5.688-5.431-3.547-2.359-7.51-4.23-10.4-7.358-3.264-3.522-4.833-8.36-5.118-13.147-.163-2.783.075-5.576.019-8.367a17.546 17.546 0 0 0-.034-.962 9.691 9.691 0 0 0-.02-.481c-.204-3.263-1.06-6.645-3.295-9.038l1.9 12.447.015.1c-.025.017-.052.03-.075.047-1.27.79-.782 2.204-2.125 2.972-1.283.737-2.577 1.478-3.673 2.472-3.931 3.55-4.543 9.437-4.36 14.721"/>
            <path fill="#DC4541" d="M226.544 182.06c1.143.666 2.501.728 3.767.422.388.035.774.081 1.15.14 1.123.182 2.16.5 2.97 1.1.85.4 1.659.884 2.412 1.43 2.276 1.645 4.088 3.914 5.072 6.539.732 1.962 1.02 4.05.964 6.144a18.049 18.049 0 0 1-.35 3.134 17.95 17.95 0 0 1-.894 2.83c-.102.26-.212.518-.33.773-.04.09-.082.185-.126.276-.57 1.229-1.254 2.396-1.988 3.536a62.144 62.144 0 0 1-1.925 2.757c-.43.586-.875 1.182-1.327 1.785-2.233 2.967-4.632 6.093-6.292 9.277a86.515 86.515 0 0 0 5.63 3.062 82.37 82.37 0 0 0 4.882 2.235c.182.078.364.158.552.233a92.86 92.86 0 0 0 10.27 3.545l.651.182c10.163 2.797 20.755 3.997 31.346 4.259a200.267 200.267 0 0 0 11.523-.059h.045c-.755-2.422-1.728-4.822-2.368-7.163-.34-1.088-.67-2.178-.987-3.277a134.338 134.338 0 0 1-3.152-13.367c-.015-.18-.028-.36-.04-.535a85.04 85.04 0 0 1-.122-2.062 72.794 72.794 0 0 1-.072-2.576c-.038-4.34.389-8.892 2.742-12.548a12.784 12.784 0 0 1 2.013-2.411c.887-.809 1.885-1.38 2.927-1.818.232-.102.464-.193.696-.28 2.28-.847 4.688-1.224 6.566-2.263 1.683-1.118 1.442-3.673.718-5.61a9.97 9.97 0 0 0-.39-.903c-1.389-3.458-1.774-6.974-1.931-10.526-.011-.173-.018-.349-.024-.524-.155-3.961-.077-7.956-.839-11.96-.033-.156-.062-.314-.096-.472a27.859 27.859 0 0 0-.377-1.59c0-.977-.328-1.953-1.15-2.973a14.168 14.168 0 0 0-1.47-2.116 16.633 16.633 0 0 0-1.115-1.216c-2.398-2.398-5.182-4.17-8.155-5.628a52.75 52.75 0 0 0-3.032-1.36c-.016-.007-.033-.018-.048-.025a60.484 60.484 0 0 0-3.25-1.37 160.945 160.945 0 0 0-3.139-1.183c-.059-.022-.12-.041-.179-.065-.081-.035-.161-.068-.241-.104-1.064-.45-2.058-.835-3.053-1.239a42.31 42.31 0 0 1-3.275-1.476l1.75.056c-4.81-.487-9.658-.372-14.454.178-.959.109-1.917.235-2.872.378-1.303.02-2.6.131-3.876.327-.161.02-.326.048-.484.078a29.337 29.337 0 0 0-5.418 1.451c-.98.364-1.94.778-2.872 1.244a27.469 27.469 0 0 0-3.675 2.191 31.828 31.828 0 0 0-3.224 2.768c-.47.458-.93.932-1.37 1.416-1.405 1.76-3.182 3.6-4.323 5.806a12.81 12.81 0 0 0-.298.616c-.137.306-.26.622-.368.944-.545 2.352-1.216 4.605-1.944 6.812-.052.162-.107.328-.164.494-1.354 4.06-2.76 8.112-3.773 12.274-.063.253-.117.513-.165.781-.037.195-.069.394-.096.595-.333 2.497.078 5.229 2.467 6.63"/>
            <path fill="#EDB78E" d="M256.394 144.066c.4 1.298 1.066 2.335 1.898 3.095.276.257.572.479.881.672 5.35 4.36 9.27-1.174 12.416-4.671.226-.22.445-.45.663-.686.435-.475.854-.984 1.256-1.526.14-.223.25-.457.334-.7.418-1.21.189-2.621-.008-3.926-.797-5.32-.47-11.427-1.322-16.301-.022-.007-.043-.016-.062-.02-1.091-.37-.66.203-1.746.76-.075.038-.148.081-.224.12-.542.32-1.024.73-1.49 1.149a5.273 5.273 0 0 1-.175.16c-3.453 3.106-6.898 6.214-10.344 9.321-.011.012-.02.018-.034.018-.358.107-1.22-2.615-1.467-2.253-.163.24-.224.829-.235 1.548-.023 1.472.16 3.486.118 4.164 0 .02 0 .041-.005.06a109.202 109.202 0 0 0-.302 3.84c-.048.76-.088 1.524-.118 2.287-.012.255-.021.508-.03.765-.04.483-.04 1.135-.062 1.58-.01.179-.016.372.058.544"/>
            <path fill="#776DB1" d="M249.853 155.382l-1.13-3.568a1.423 1.423 0 0 0-1.47-.989l-8.353.654a1.417 1.417 0 0 0-1.245 1.843l6.062 19.072a1.425 1.425 0 0 0 1.504.982l8.845-.91a1.42 1.42 0 0 0 1.195-1.885l-5.408-15.199z"/>
            <path fill="#29282B" d="M249.17 155.822l-1.129-3.57a1.423 1.423 0 0 0-1.47-.988l-8.354.652a1.42 1.42 0 0 0-1.246 1.845l6.064 19.072a1.422 1.422 0 0 0 1.502.982l8.847-.909a1.422 1.422 0 0 0 1.195-1.888l-5.408-15.196z"/>
            <path fill="#E2A881" d="M256.546 138.89c14.568-2.215 15.824-15.559 15.904-18.887.012-.478 0-.747 0-.747-.386-.519-1.192.64-1.97 1.628-.578.738-1.14 1.382-1.491 1.148a20113.073 20113.073 0 0 0-10.518 9.481c-.012.011-.021.018-.033.018-.296.151-1.174-.509-1.704-.705-.022 1.472.162 3.486.119 4.163 0 .021 0 .042-.005.061a109.505 109.505 0 0 0-.302 3.84"/>
            <path fill="#EDB78E" d="M247.783 111.213c.013.527.045 1.05.093 1.569.02.284.048.563.08.843.06 1.517.187 3.068.426 4.591.71 4.513 2.414 8.805 6.265 11.4 1.715 1.35 3.954 2.738 6.123 3.173 2.452.488 4.234-1.113 5.895-2.672a16.865 16.865 0 0 0 3.246-4.164c.37-.57.706-1.15 1.007-1.75.9-1.793 1.48-3.786 1.636-5.961.047-.657.072-1.316.088-1.963.018-.65.021-1.289.018-1.914.013-.411.022-.821.032-1.228 1.534.442 3.346-.258 4.123-1.652.778-1.39.392-3.337-.896-4.281-1.286-.947-3.315-.707-4.299.553l-.314.453c-.025-.509-.052-1.013-.078-1.52a412.8 412.8 0 0 1-.1-1.986c-.034-.638-.08-1.313-.458-1.828-.373-.504-.992-.759-1.6-.917a8.724 8.724 0 0 0-5.58.404c-.116.047-.233.1-.347.16a10.199 10.199 0 0 0-1.02.563c-.052.03-.106.068-.157.1l-.276.186c-.224.156-.446.322-.659.498a16.044 16.044 0 0 0-1.206 1.075l-.08.077-.256.25c-.066.07-.131.135-.189.203a10.08 10.08 0 0 0-.386.404c-.188.205-.376.411-.563.618a56.036 56.036 0 0 1-1.243 1.413c-.413.45-.843.893-1.293 1.31-.926.85-1.926 1.586-3.016 2.034-1.093.45-2.275.61-3.555.306a9.882 9.882 0 0 1-1.46-.347"/>
            <path fill="#E2A881" d="M247.875 112.781c.023.284.048.565.082.844.058 1.516.186 3.068.424 4.59 5.42.216 11.528-2.313 13.928-7.127 2.258-4.526 7.117-4.557 8.92-4.398-.037-.662-.069-1.325-.102-1.987-.032-.638-.079-1.312-.458-1.826-.371-.505-.992-.759-1.6-.918a8.72 8.72 0 0 0-5.578.403c-.116.05-.235.1-.348.16a10.199 10.199 0 0 0-1.02.563c-.052.032-.105.068-.156.1l-.276.187a13.433 13.433 0 0 0-.98.762 17.26 17.26 0 0 0-.885.81l-.082.078c-.15.147-.3.3-.443.453-.134.134-.262.266-.387.403-.189.206-.376.412-.562.62-.405.455-.806.92-1.216 1.38l-.027.032c-1.058 1.196-2.144 2.362-3.438 3.283-1.677 1.195-3.79 1.95-5.796 1.588"/>
            <path fill="#EDB78E" d="M301.894 187.752c.109 5.049-1.048 9.903-3.349 14.401-.949 1.858-2.189 3.708-4.083 4.593-1.563.73-3.363.703-5.088.617-.765-.039-1.562-.094-2.22-.482-.593-.35-1.006-.931-1.382-1.507-3.121-4.784-4.892-10.293-7.28-15.48-2.884-6.272-6.71-12.15-8.737-18.746-.291-.949-.637-2.024-1.54-2.437-.548-.252-1.175-.194-1.777-.218a6.497 6.497 0 0 1-4.963-2.693 6.444 6.444 0 0 1-.874-5.562c.381-1.207 1.104-2.57.403-3.625-.446-.673-1.321-.91-2.128-.989-.804-.08-1.65-.062-2.372-.425-.724-.365-1.25-1.29-.847-1.99.338-.587 1.114-.721 1.79-.788 3.684-.365 7.738-.478 10.703 1.732 3.909 2.91 4.322 8.545 6.917 12.664.989 1.567 2.293 2.907 3.589 4.234l6.05 6.203c3.058 3.136 6.148 6.311 8.396 10.068.253.422.222.55.645.802 0 0 .856.02 1.58.005 2.217-.043 4.282.34 6.567-.377M224.924 180.575c-1.63 7.651-2.074 15.002-1.583 22.808.143 2.258.57 4.844 2.517 6.006 1.41.844 3.235.645 4.749 0a10.18 10.18 0 0 0 2.413-1.463c3.406-2.984 5.04-6.565 6.347-10.472 2.723-6.512 4.083-13.251 6.514-19.422.16-.412.328-.82.499-1.227.606-2.15 1.435-4.25 2.705-6.054.21-.302.434-.593.672-.877 2.679-2.376 4.965-4.982 4.28-8.6-.102-.373-.2-.748-.29-1.124-.466-1.878-.876-3.778-1.966-5.677-.979-1.303-2.612-.325-3.53.574-.215.216-.422.44-.622.656-1.032 1.122-2.204 2.176-3.63 2.722-1.429.545-3.158.502-4.365-.436-.86-.671-1.446-1.763-2.496-2.065-.817 2.995-.225 6.216.909 9.105.554 1.407 1.245 2.866 1.005 4.354-.155.95-.675 1.794-1.187 2.608-2.42 2.67-5.368 9.193-5.768 9.06-.608-.082-3.156-.08-3.77-.042-1.083.068-2.368.204-3.302-.345l-.101-.089z"/>
            <path fill="#E5AB83" d="M295.51 192.73c-1.63-5.193-4.896-9.508-8.768-13.258-3.807-3.69-7.309-7.674-11.128-11.347-.186-.18.099-.465.286-.283 4.045 3.891 7.821 8.069 11.815 12.017 3.64 3.6 6.641 7.852 8.184 12.765.078.247-.31.352-.39.107M264.268 158.724c-.975-1.089-2.152-1.95-3.528-2.463-1.205-.449-2.432-.372-3.658-.638-1.18-.255-2.288-1.665-1.472-2.839.147-.21.496-.01.349.203-1.23 1.77 1.593 2.263 2.672 2.376.758.076 1.5.245 2.216.51 1.446.537 2.683 1.424 3.705 2.566.173.193-.112.478-.284.285M237.986 171.968c-3.944 7.173-9.379 13.63-11.704 21.596-.073.252-.469.145-.395-.109 2.334-8.003 7.784-14.486 11.746-21.692.126-.23.48-.026.353.205"/>
            <path fill="#000" d="M238.322 107.634a13.515 13.515 0 0 0 1.186 2.673c.195.336.411.661.643.977a10.201 10.201 0 0 0 3.846 3.159c.399.185.81.341 1.228.466a7.767 7.767 0 0 0 3.28.288c.078-.006.161-.019.24-.032 1.76-.29 3.26-1.153 4.657-2.253.008 0 .011-.003.018-.013 1.22-.961 2.361-2.1 3.534-3.195.01-.007.016-.011.02-.02.727-.672 1.467-1.334 2.241-1.918.486-.366.997-.71 1.523-1.019a16.876 16.876 0 0 1 4.27-1.788l.004-.002c.003-.003.006-.003.01 0h.001c.144-.042.278-.075.422-.11 1.996-.479 4.519.062 6.215-1.182a3.897 3.897 0 0 0 .82-.844c.159-.215.3-.446.431-.68.06-.11.12-.225.18-.338a9.329 9.329 0 0 0 .794-1.791c.004-.003.004-.008.004-.008.574-1.79.622-3.725.344-5.607a16.312 16.312 0 0 0-.293-1.503l.053 1.518.003.094a6.638 6.638 0 0 0-.147-.61c0-.006-.004-.014-.007-.022a6.697 6.697 0 0 0-2.242-3.368c-1.25-1.018-2.857-1.628-4.564-1.797a59.975 59.975 0 0 0-3.698-.231c-2.96-.619-6.197-1.556-9.334-2.031a25.196 25.196 0 0 0-1.866-.225 12.26 12.26 0 0 0-3.753-.271c-.592.052-1.167.15-1.722.29-2.288.446-4.064 1.459-5.418 2.834-.454.457-.859.956-1.219 1.487-3.6 4.975-3.272 11.488-1.704 17.072"/>
            <path fill="#FFF" d="M272.074 113.265c0 .88.717 1.595 1.6 1.595.883 0 1.6-.715 1.6-1.595s-.717-1.595-1.6-1.595c-.883 0-1.6.715-1.6 1.595"/>
            <path fill="#E5AB83" d="M274.525 137.948c.46 2.615-1.74 4.552-3.382 6.284a67.798 67.798 0 0 1-3.805 3.71c-.954.859-1.907 1.847-3.245 1.994-2.448.268-5.269-1.509-6.71-3.35-1.973-2.523-1.493-5.728-1.562-8.76-.01-.471.725-.471.736 0 .051 2.356-.39 5.406.826 7.511 1.15 1.992 3.641 3.703 5.985 3.848 2.396.148 4.863-3.02 6.436-4.621 1.585-1.616 4.456-3.894 4.012-6.422-.081-.46.628-.658.71-.194"/>
            <path fill="#FFE9EC" d="M308.563 87.505c-1.549-1.239-3.247-2.414-5.203-2.755-3.719-.647-7.442 2.068-8.868 5.55-1.425 3.485-.95 7.476.247 11.045 2.435 5.34 4.843 8.69 9.63 12.887 2.333 2.045 5.042 3.821 8.106 4.338 3.062.516 6.523-.464 8.3-3.006 1.692-2.425 1.554-5.677.889-8.558-1.79-7.77-6.863-14.513-13.101-19.5"/>
            <path fill="#FFF" d="M213.913 158.257h-28.54a.412.412 0 0 1-.412-.411c0-.225.185-.41.413-.41h28.539a.411.411 0 0 1 0 .821M187.297 161.997h-1.923a.41.41 0 1 1 0-.82h1.923a.41.41 0 0 1 0 .821M207.67 161.997H190.38a.412.412 0 0 1-.413-.41c0-.226.186-.41.413-.41h17.288a.41.41 0 0 1 0 .821M202.661 165.025h-17.288a.41.41 0 0 1-.413-.41c0-.225.186-.41.413-.41h17.288a.41.41 0 1 1 0 .82"/>
        </g>
    </g>
</svg>
